<svg width="90" height="90" viewBox="0 0 90 90" fill="none" xmlns="http://www.w3.org/2000/svg">
<path fill-rule="evenodd" clip-rule="evenodd" d="M38 26.5V27C38 28.1046 37.1046 29 36 29H26C24.8954 29 24 29.8954 24 31V39C24 40.1046 24.8954 41 26 41H32C33.1046 41 34 41.8954 34 43V44V56V57C34 58.1046 33.1046 59 32 59H26C24.8954 59 24 59.8954 24 61V69C24 70.1046 24.8954 71 26 71H64C65.1046 71 66 70.1046 66 69V31C66 29.8954 65.1046 29 64 29H53C51.8954 29 51 28.1046 51 27V26.5C51 24.7168 50.5151 20.0067 49.2542 18.7458C47.9933 17.4849 46.2832 16.7766 44.5 16.7766C42.7168 16.7766 41.0067 17.4849 39.7458 18.7458C38.4849 20.0067 38 24.7168 38 26.5ZM54.7086 24.181C54.86 25.207 55.7207 26 56.7578 26H67C68.1046 26 69 26.8954 69 28V29V71V72C69 73.1046 68.1046 74 67 74H23C21.8954 74 21 73.1046 21 72V71V58C21 56.8954 21.8954 56 23 56V56H24H29C30.1046 56 31 55.1046 31 54V46C31 44.8954 30.1046 44 29 44H24H23V44C21.8954 44 21 43.1046 21 42V29V28C21 26.8954 21.8954 26 23 26H32.2422C33.2793 26 34.14 25.207 34.2914 24.181C34.7404 21.1397 35.6963 17.4545 37.0754 16.0754C39.0445 14.1062 41.7152 13 44.5 13C47.2848 13 49.9555 14.1062 51.9246 16.0754C53.3037 17.4545 54.2596 21.1397 54.7086 24.181Z" fill="#D9D9D9"/>
</svg>
